<?xml version="1.0" standalone="no"?>
<!DOCTYPE svg PUBLIC "-//W3C//DTD SVG 20010904//EN"
 "http://www.w3.org/TR/2001/REC-SVG-20010904/DTD/svg10.dtd">
<svg version="1.0" xmlns="http://www.w3.org/2000/svg"
 width="66.000000pt" height="66.000000pt" viewBox="0 0 66.000000 66.000000"
 preserveAspectRatio="xMidYMid meet">

<g transform="translate(0.000000,66.000000) scale(0.100000,-0.100000)"
fill="yellow" stroke="yellow">
<path d="M57 443 c-2 -5 -8 -26 -12 -48 -8 -47 4 -41 14 7 5 24 13 34 29 36
20 3 22 -1 22 -37 0 -23 5 -41 10 -41 6 0 10 18 10 40 0 38 2 40 30 40 28 0
30 -2 30 -40 0 -22 5 -40 10 -40 6 0 10 18 10 40 0 39 1 40 34 40 34 0 35 -1
39 -47 l3 -48 2 48 c2 47 2 47 37 47 34 0 35 -1 35 -40 0 -22 5 -40 10 -40 6
0 10 18 10 39 0 36 3 40 28 44 15 2 -57 5 -160 6 -103 0 -189 -2 -191 -6z"/>
<path d="M461 403 c2 -44 2 -45 8 -14 l6 34 13 -35 c12 -35 49 -57 72 -43 4 3
10 -1 13 -7 2 -7 8 -10 12 -6 4 4 -1 31 -11 60 l-19 53 -48 3 -47 3 1 -48z"/>
<path d="M593 443 c9 -2 23 -2 30 0 6 3 -1 5 -18 5 -16 0 -22 -2 -12 -5z"/>
<path d="M82 268 c-30 -30 -3 -82 40 -76 29 4 47 50 28 72 -15 19 -51 21 -68
4z m45 -24 c8 -21 -13 -42 -28 -27 -13 13 -5 43 11 43 6 0 13 -7 17 -16z"/>
<path d="M496 264 c-9 -8 -16 -19 -16 -22 0 -18 33 -52 50 -52 17 0 50 34 50
52 0 14 -32 38 -50 38 -10 0 -26 -7 -34 -16z m51 -20 c9 -23 -13 -40 -32 -24
-12 10 -13 16 -4 26 15 18 28 18 36 -2z"/>
</g>
</svg>
